<svg xmlns="http://www.w3.org/2000/svg" xmlns:xlink="http://www.w3.org/1999/xlink" width="500" zoomAndPan="magnify" viewBox="0 0 375 374.999991" height="500" preserveAspectRatio="xMidYMid meet" version="1.0"><defs><g/><clipPath id="52ad929263"><path d="M 196 5.894531 L 220 5.894531 L 220 21 L 196 21 Z M 196 5.894531 " clip-rule="nonzero"/></clipPath><clipPath id="8ee5bb2125"><path d="M 83 262 L 348 262 L 348 368.894531 L 83 368.894531 Z M 83 262 " clip-rule="nonzero"/></clipPath><clipPath id="8a9f151d51"><path d="M 352 182 L 371.25 182 L 371.25 191 L 352 191 Z M 352 182 " clip-rule="nonzero"/></clipPath></defs><path fill="#838bc2" d="M 39.007812 80.949219 C 56.050781 58.09375 78.003906 39.925781 102.839844 27.464844 C 127.671875 15.003906 155.359375 8.265625 183.867188 8.265625 L 183.867188 14.019531 C 156.230469 14.019531 129.421875 20.539062 105.402344 32.589844 C 81.386719 44.640625 60.136719 62.234375 43.613281 84.390625 Z M 39.007812 80.949219 " fill-opacity="1" fill-rule="nonzero"/><g clip-path="url(#52ad929263)"><path fill="#838bc2" d="M 197.371094 5.894531 C 200.960938 6.160156 204.628906 6.542969 208.363281 7.046875 C 212.125 7.554688 215.753906 8.148438 219.246094 8.835938 L 217.042969 20.121094 C 213.539062 19.433594 210.132812 18.863281 206.832031 18.421875 C 203.503906 17.972656 200.078125 17.617188 196.5625 17.359375 Z M 197.371094 5.894531 " fill-opacity="1" fill-rule="nonzero"/></g><path fill="#838bc2" d="M 213.785156 13.09375 C 224.21875 14.871094 234.457031 17.570312 244.378906 21.144531 C 254.296875 24.722656 263.902344 29.179688 273.066406 34.46875 C 278.546875 37.632812 283.847656 41.085938 288.953125 44.804688 C 294.0625 48.527344 298.96875 52.519531 303.65625 56.765625 L 302.886719 57.617188 C 298.226562 53.394531 293.351562 49.425781 288.28125 45.730469 C 283.210938 42.035156 277.941406 38.605469 272.496094 35.464844 C 263.390625 30.207031 253.847656 25.777344 243.992188 22.222656 C 234.140625 18.671875 223.96875 15.992188 213.597656 14.226562 Z M 213.785156 13.09375 " fill-opacity="1" fill-rule="nonzero"/><g clip-path="url(#8ee5bb2125)"><path fill="#333f63" d="M 347.492188 264.292969 C 332.789062 296.230469 309.464844 322.433594 281.027344 340.648438 C 252.582031 358.867188 219.027344 369.101562 183.867188 369.101562 C 165.949219 369.101562 148.210938 366.417969 131.222656 361.226562 C 114.234375 356.035156 98.027344 348.339844 83.164062 338.316406 L 85.734375 334.507812 C 100.246094 344.289062 116.035156 351.789062 132.554688 356.839844 C 149.078125 361.890625 166.363281 364.496094 183.867188 364.496094 C 218.136719 364.496094 250.835938 354.527344 278.546875 336.78125 C 306.257812 319.027344 328.988281 293.492188 343.316406 262.367188 Z M 347.492188 264.292969 " fill-opacity="1" fill-rule="nonzero"/></g><path fill="#715c8c" d="M 45.441406 309.550781 C 41.621094 305.167969 37.960938 300.523438 34.472656 295.636719 C 31.035156 290.824219 27.839844 285.859375 24.898438 280.761719 L 34.832031 275.007812 C 37.613281 279.824219 40.617188 284.488281 43.824219 288.984375 C 46.980469 293.40625 50.417969 297.75 54.117188 301.996094 Z M 45.441406 309.550781 " fill-opacity="1" fill-rule="nonzero"/><path fill="#333f63" d="M 21.109375 263.417969 C 9.0625 237.078125 3.761719 208.632812 5.09375 180.507812 C 6.425781 152.382812 14.390625 124.566406 28.871094 99.480469 L 30.859375 100.632812 C 16.5625 125.394531 8.699219 152.851562 7.386719 180.617188 C 6.070312 208.386719 11.304688 236.460938 23.199219 262.460938 Z M 21.109375 263.417969 " fill-opacity="1" fill-rule="nonzero"/><path fill="#715c8c" d="M 251.214844 87.246094 C 267.179688 97.808594 280.203125 111.824219 289.523438 127.96875 L 289.523438 127.972656 C 300.058594 146.21875 305.871094 167.183594 305.871094 188.972656 C 305.871094 222.660156 292.214844 253.164062 270.136719 275.242188 C 248.0625 297.320312 217.558594 310.976562 183.867188 310.976562 C 150.179688 310.976562 119.675781 297.320312 97.597656 275.242188 C 75.519531 253.164062 61.867188 222.660156 61.867188 188.972656 L 64.167969 188.972656 C 64.167969 222.027344 77.566406 251.953125 99.226562 273.613281 C 120.890625 295.273438 150.8125 308.671875 183.867188 308.671875 C 216.921875 308.671875 246.847656 295.273438 268.511719 273.613281 C 290.171875 251.953125 303.570312 222.027344 303.570312 188.972656 C 303.570312 167.582031 297.867188 147.011719 287.539062 129.117188 C 278.398438 113.289062 265.636719 99.550781 250.007812 89.195312 C 250.503906 88.613281 250.914062 87.957031 251.214844 87.246094 Z M 251.214844 87.246094 " fill-opacity="1" fill-rule="nonzero"/><path fill="#333f63" d="M 183.867188 29.558594 C 227.886719 29.558594 267.742188 47.402344 296.589844 76.25 C 325.4375 105.097656 343.28125 144.949219 343.28125 188.972656 C 343.28125 232.992188 325.4375 272.84375 296.589844 301.691406 C 267.742188 330.539062 227.886719 348.382812 183.867188 348.382812 C 139.847656 348.382812 99.996094 330.539062 71.148438 301.691406 C 42.300781 272.84375 24.457031 232.992188 24.457031 188.972656 C 24.457031 144.949219 42.300781 105.097656 71.148438 76.25 C 99.996094 47.402344 139.847656 29.558594 183.867188 29.558594 Z M 295.777344 77.0625 C 267.136719 48.425781 227.570312 30.710938 183.867188 30.710938 C 140.167969 30.710938 100.601562 48.425781 71.960938 77.0625 C 43.324219 105.703125 25.609375 145.269531 25.609375 188.972656 C 25.609375 232.671875 43.324219 272.238281 71.960938 300.878906 C 100.601562 329.519531 140.167969 347.230469 183.867188 347.230469 C 227.570312 347.230469 267.136719 329.519531 295.777344 300.878906 C 324.414062 272.238281 342.128906 232.671875 342.128906 188.972656 C 342.128906 145.269531 324.414062 105.703125 295.777344 77.0625 Z M 295.777344 77.0625 " fill-opacity="1" fill-rule="nonzero"/><path fill="#838bc2" d="M 41.722656 188.972656 C 41.722656 149.71875 57.632812 114.183594 83.355469 88.457031 C 109.082031 62.734375 144.617188 46.824219 183.867188 46.824219 C 223.121094 46.824219 258.65625 62.734375 284.382812 88.457031 C 310.105469 114.183594 326.015625 149.71875 326.015625 188.972656 C 326.015625 201.4375 324.371094 213.804688 321.167969 225.757812 C 317.972656 237.691406 313.210938 249.21875 306.964844 260.035156 L 302.988281 257.75 C 309.019531 247.308594 313.625 236.148438 316.726562 224.574219 C 319.824219 213.019531 321.410156 201.050781 321.410156 188.972656 C 321.410156 150.988281 306.015625 116.605469 281.125 91.714844 C 256.234375 66.824219 221.851562 51.429688 183.867188 51.429688 C 145.886719 51.429688 111.5 66.824219 86.613281 91.714844 C 61.722656 116.605469 46.328125 150.988281 46.328125 188.972656 Z M 41.722656 188.972656 " fill-opacity="1" fill-rule="nonzero"/><path fill="#715c8c" d="M 265.589844 330.503906 C 253.152344 337.683594 239.894531 343.160156 226.167969 346.835938 C 212.417969 350.523438 198.199219 352.410156 183.867188 352.410156 C 138.738281 352.410156 97.875 334.117188 68.300781 304.539062 C 38.722656 274.964844 20.429688 234.105469 20.429688 188.972656 C 20.429688 143.839844 38.722656 102.980469 68.300781 73.402344 C 97.875 43.824219 138.738281 25.53125 183.867188 25.53125 L 183.867188 34.738281 C 141.277344 34.738281 102.71875 52 74.808594 79.910156 C 46.898438 107.820312 29.636719 146.382812 29.636719 188.972656 C 29.636719 231.5625 46.898438 270.121094 74.808594 298.03125 C 102.71875 325.941406 141.277344 343.203125 183.867188 343.203125 C 197.421875 343.203125 210.839844 341.421875 223.792969 337.953125 C 236.765625 334.476562 249.277344 329.3125 260.984375 322.554688 Z M 265.589844 330.503906 " fill-opacity="1" fill-rule="nonzero"/><path fill="#715c8c" d="M 67.476562 188.972656 C 67.476562 189.265625 67.449219 189.554688 67.394531 189.839844 C 67.335938 190.128906 67.25 190.40625 67.140625 190.679688 C 67.027344 190.949219 66.890625 191.207031 66.726562 191.449219 C 66.5625 191.695312 66.378906 191.917969 66.171875 192.125 C 65.964844 192.332031 65.738281 192.519531 65.496094 192.679688 C 65.25 192.84375 64.996094 192.980469 64.722656 193.09375 C 64.453125 193.207031 64.175781 193.289062 63.886719 193.347656 C 63.601562 193.40625 63.308594 193.433594 63.015625 193.433594 C 62.722656 193.433594 62.433594 193.40625 62.144531 193.347656 C 61.859375 193.289062 61.578125 193.207031 61.308594 193.09375 C 61.039062 192.980469 60.78125 192.84375 60.539062 192.679688 C 60.292969 192.519531 60.070312 192.332031 59.863281 192.125 C 59.652344 191.917969 59.46875 191.695312 59.304688 191.449219 C 59.144531 191.207031 59.007812 190.949219 58.894531 190.679688 C 58.78125 190.40625 58.699219 190.128906 58.640625 189.839844 C 58.582031 189.554688 58.554688 189.265625 58.554688 188.972656 C 58.554688 188.679688 58.582031 188.386719 58.640625 188.101562 C 58.699219 187.8125 58.78125 187.535156 58.894531 187.261719 C 59.007812 186.992188 59.144531 186.734375 59.304688 186.492188 C 59.46875 186.25 59.652344 186.023438 59.863281 185.816406 C 60.070312 185.609375 60.292969 185.425781 60.539062 185.261719 C 60.78125 185.097656 61.039062 184.960938 61.308594 184.847656 C 61.578125 184.738281 61.859375 184.652344 62.144531 184.59375 C 62.433594 184.539062 62.722656 184.507812 63.015625 184.507812 C 63.308594 184.507812 63.601562 184.539062 63.886719 184.59375 C 64.175781 184.652344 64.453125 184.738281 64.722656 184.847656 C 64.996094 184.960938 65.25 185.097656 65.496094 185.261719 C 65.738281 185.425781 65.964844 185.609375 66.171875 185.816406 C 66.378906 186.023438 66.5625 186.25 66.726562 186.492188 C 66.890625 186.734375 67.027344 186.992188 67.140625 187.261719 C 67.25 187.535156 67.335938 187.8125 67.394531 188.101562 C 67.449219 188.386719 67.476562 188.679688 67.476562 188.972656 Z M 67.476562 188.972656 " fill-opacity="1" fill-rule="nonzero"/><path fill="#838bc2" d="M 312.492188 258.894531 C 312.492188 259.386719 312.441406 259.875 312.347656 260.359375 C 312.25 260.84375 312.109375 261.3125 311.917969 261.769531 C 311.730469 262.226562 311.5 262.65625 311.226562 263.066406 C 310.949219 263.476562 310.640625 263.859375 310.289062 264.207031 C 309.941406 264.554688 309.5625 264.867188 309.152344 265.140625 C 308.742188 265.414062 308.308594 265.648438 307.851562 265.835938 C 307.398438 266.023438 306.925781 266.167969 306.441406 266.261719 C 305.960938 266.359375 305.46875 266.40625 304.976562 266.40625 C 304.484375 266.40625 303.996094 266.359375 303.511719 266.261719 C 303.027344 266.167969 302.558594 266.023438 302.101562 265.835938 C 301.644531 265.648438 301.210938 265.414062 300.800781 265.140625 C 300.390625 264.867188 300.011719 264.554688 299.664062 264.207031 C 299.316406 263.859375 299.003906 263.476562 298.730469 263.066406 C 298.457031 262.65625 298.222656 262.226562 298.035156 261.769531 C 297.847656 261.3125 297.703125 260.84375 297.605469 260.359375 C 297.511719 259.875 297.464844 259.386719 297.464844 258.894531 C 297.464844 258.398438 297.511719 257.910156 297.605469 257.425781 C 297.703125 256.945312 297.847656 256.472656 298.035156 256.019531 C 298.222656 255.5625 298.457031 255.128906 298.730469 254.71875 C 299.003906 254.308594 299.316406 253.929688 299.664062 253.578125 C 300.011719 253.230469 300.390625 252.917969 300.800781 252.644531 C 301.210938 252.371094 301.644531 252.140625 302.101562 251.949219 C 302.558594 251.761719 303.027344 251.621094 303.511719 251.523438 C 303.996094 251.425781 304.484375 251.378906 304.976562 251.378906 C 305.46875 251.378906 305.960938 251.425781 306.441406 251.523438 C 306.925781 251.621094 307.398438 251.761719 307.851562 251.949219 C 308.308594 252.140625 308.742188 252.371094 309.152344 252.644531 C 309.5625 252.917969 309.941406 253.230469 310.289062 253.578125 C 310.640625 253.929688 310.949219 254.308594 311.226562 254.71875 C 311.5 255.128906 311.730469 255.5625 311.917969 256.019531 C 312.109375 256.472656 312.25 256.945312 312.347656 257.425781 C 312.441406 257.910156 312.492188 258.398438 312.492188 258.894531 Z M 312.492188 258.894531 " fill-opacity="1" fill-rule="nonzero"/><path fill="#333f63" d="M 91.964844 336.414062 C 91.964844 336.90625 91.917969 337.394531 91.820312 337.878906 C 91.722656 338.363281 91.582031 338.832031 91.390625 339.289062 C 91.203125 339.742188 90.972656 340.175781 90.699219 340.585938 C 90.425781 340.996094 90.113281 341.375 89.761719 341.726562 C 89.414062 342.074219 89.035156 342.386719 88.625 342.660156 C 88.214844 342.933594 87.78125 343.164062 87.324219 343.355469 C 86.871094 343.542969 86.398438 343.6875 85.917969 343.78125 C 85.433594 343.878906 84.945312 343.925781 84.449219 343.925781 C 83.957031 343.925781 83.46875 343.878906 82.984375 343.78125 C 82.5 343.6875 82.03125 343.542969 81.574219 343.355469 C 81.117188 343.164062 80.6875 342.933594 80.277344 342.660156 C 79.867188 342.386719 79.484375 342.074219 79.136719 341.726562 C 78.789062 341.375 78.476562 340.996094 78.203125 340.585938 C 77.929688 340.175781 77.695312 339.742188 77.507812 339.289062 C 77.320312 338.832031 77.175781 338.363281 77.082031 337.878906 C 76.984375 337.394531 76.9375 336.90625 76.9375 336.414062 C 76.9375 335.917969 76.984375 335.429688 77.082031 334.945312 C 77.175781 334.460938 77.320312 333.992188 77.507812 333.535156 C 77.695312 333.082031 77.929688 332.648438 78.203125 332.238281 C 78.476562 331.828125 78.789062 331.449219 79.136719 331.097656 C 79.484375 330.75 79.867188 330.4375 80.277344 330.164062 C 80.6875 329.890625 81.117188 329.660156 81.574219 329.46875 C 82.03125 329.28125 82.5 329.140625 82.984375 329.042969 C 83.46875 328.945312 83.957031 328.898438 84.449219 328.898438 C 84.945312 328.898438 85.433594 328.945312 85.917969 329.042969 C 86.398438 329.140625 86.871094 329.28125 87.324219 329.46875 C 87.78125 329.660156 88.214844 329.890625 88.625 330.164062 C 89.035156 330.4375 89.414062 330.75 89.761719 331.097656 C 90.113281 331.449219 90.425781 331.828125 90.699219 332.238281 C 90.972656 332.648438 91.203125 333.082031 91.390625 333.535156 C 91.582031 333.992188 91.722656 334.460938 91.820312 334.945312 C 91.917969 335.429688 91.964844 335.917969 91.964844 336.414062 Z M 91.964844 336.414062 " fill-opacity="1" fill-rule="nonzero"/><path fill="#715c8c" d="M 244.296875 73.917969 C 247.164062 73.917969 249.765625 75.082031 251.644531 76.960938 C 253.523438 78.84375 254.6875 81.441406 254.6875 84.308594 C 254.6875 87.179688 253.523438 89.777344 251.644531 91.65625 C 249.765625 93.539062 247.164062 94.703125 244.296875 94.703125 C 241.425781 94.703125 238.828125 93.539062 236.945312 91.65625 C 235.066406 89.777344 233.902344 87.179688 233.902344 84.308594 C 233.902344 81.441406 235.066406 78.84375 236.945312 76.960938 C 238.828125 75.082031 241.425781 73.917969 244.296875 73.917969 Z M 247.574219 81.03125 C 246.734375 80.191406 245.574219 79.671875 244.296875 79.671875 C 243.015625 79.671875 241.855469 80.191406 241.015625 81.03125 C 240.175781 81.871094 239.65625 83.03125 239.65625 84.308594 C 239.65625 85.589844 240.175781 86.75 241.015625 87.589844 C 241.855469 88.429688 243.015625 88.945312 244.296875 88.945312 C 245.574219 88.945312 246.734375 88.429688 247.574219 87.589844 C 248.414062 86.75 248.933594 85.589844 248.933594 84.308594 C 248.933594 83.03125 248.414062 81.871094 247.574219 81.03125 Z M 247.574219 81.03125 " fill-opacity="1" fill-rule="nonzero"/><path fill="#333f63" d="M 327.121094 65.554688 L 332.1875 72.539062 L 314.484375 85.378906 L 309.414062 78.390625 Z M 327.121094 65.554688 " fill-opacity="1" fill-rule="evenodd"/><path fill="#333f63" d="M 339.546875 82.808594 C 340.941406 85.164062 342.339844 87.519531 343.734375 89.878906 C 337.765625 93.414062 331.796875 96.949219 325.828125 100.488281 C 324.433594 98.132812 323.035156 95.777344 321.640625 93.421875 C 327.609375 89.882812 333.578125 86.34375 339.546875 82.808594 Z M 339.546875 82.808594 " fill-opacity="1" fill-rule="evenodd"/><path fill="#333f63" d="M 350.101562 101.28125 C 351.207031 103.664062 352.308594 106.046875 353.414062 108.429688 C 347.375 111.226562 341.339844 114.019531 335.304688 116.816406 C 334.199219 114.433594 333.097656 112.050781 331.996094 109.667969 C 338.03125 106.871094 344.066406 104.078125 350.101562 101.28125 Z M 350.101562 101.28125 " fill-opacity="1" fill-rule="evenodd"/><path fill="#333f63" d="M 358.648438 120.769531 C 359.457031 123.179688 360.265625 125.589844 361.078125 128 C 354.972656 130.050781 348.871094 132.105469 342.765625 134.15625 C 341.957031 131.746094 341.144531 129.335938 340.335938 126.925781 C 346.4375 124.875 352.542969 122.824219 358.648438 120.769531 Z M 358.648438 120.769531 " fill-opacity="1" fill-rule="evenodd"/><path fill="#333f63" d="M 365.023438 141.054688 C 365.539062 143.492188 366.058594 145.925781 366.574219 148.363281 C 360.402344 149.671875 354.230469 150.984375 348.058594 152.292969 C 347.542969 149.855469 347.027344 147.421875 346.507812 144.984375 C 352.679688 143.675781 358.851562 142.363281 365.023438 141.054688 Z M 365.023438 141.054688 " fill-opacity="1" fill-rule="evenodd"/><path fill="#333f63" d="M 369.257812 161.863281 C 369.484375 164.324219 369.707031 166.789062 369.929688 169.25 C 363.691406 169.820312 357.453125 170.386719 351.214844 170.953125 C 350.988281 168.492188 350.765625 166.03125 350.542969 163.566406 C 356.78125 163 363.019531 162.429688 369.257812 161.863281 Z M 369.257812 161.863281 " fill-opacity="1" fill-rule="evenodd"/><g clip-path="url(#8a9f151d51)"><path fill="#333f63" d="M 371.242188 182.960938 C 371.175781 185.453125 371.105469 187.941406 371.035156 190.429688 C 364.730469 190.257812 358.421875 190.082031 352.117188 189.90625 C 352.1875 187.417969 352.253906 184.929688 352.324219 182.4375 C 358.628906 182.613281 364.9375 182.789062 371.242188 182.960938 Z M 371.242188 182.960938 " fill-opacity="1" fill-rule="evenodd"/></g><path fill="#333f63" d="M 370.925781 204.09375 C 370.5625 206.613281 370.203125 209.128906 369.839844 211.644531 C 363.46875 210.726562 357.09375 209.808594 350.71875 208.894531 C 351.078125 206.378906 351.441406 203.859375 351.804688 201.34375 C 358.179688 202.261719 364.550781 203.179688 370.925781 204.09375 Z M 370.925781 204.09375 " fill-opacity="1" fill-rule="evenodd"/><path fill="#333f63" d="M 368.386719 225.007812 C 367.730469 227.550781 367.074219 230.09375 366.421875 232.636719 C 359.980469 230.976562 353.539062 229.316406 347.097656 227.660156 C 347.75 225.117188 348.40625 222.574219 349.0625 220.03125 C 355.503906 221.691406 361.945312 223.347656 368.386719 225.007812 Z M 368.386719 225.007812 " fill-opacity="1" fill-rule="evenodd"/><path fill="#333f63" d="M 363.613281 245.441406 C 362.664062 248.011719 361.714844 250.582031 360.769531 253.152344 C 354.257812 250.75 347.75 248.347656 341.242188 245.949219 C 342.1875 243.378906 343.136719 240.808594 344.085938 238.238281 C 350.59375 240.640625 357.101562 243.042969 363.613281 245.441406 Z M 363.613281 245.441406 " fill-opacity="1" fill-rule="evenodd"/><path fill="#333f63" d="M 356.632812 265.132812 L 352.910156 272.921875 L 333.179688 263.488281 L 336.902344 255.703125 Z M 356.632812 265.132812 " fill-opacity="1" fill-rule="evenodd"/><path fill="#838bc2" d="M 50.042969 188.972656 C 50.042969 189.367188 50.003906 189.757812 49.925781 190.144531 C 49.847656 190.53125 49.734375 190.910156 49.582031 191.273438 C 49.433594 191.640625 49.246094 191.984375 49.027344 192.3125 C 48.808594 192.644531 48.558594 192.945312 48.277344 193.226562 C 48 193.503906 47.695312 193.753906 47.367188 193.976562 C 47.039062 194.195312 46.691406 194.378906 46.328125 194.53125 C 45.960938 194.683594 45.585938 194.796875 45.199219 194.875 C 44.808594 194.949219 44.417969 194.988281 44.023438 194.988281 C 43.628906 194.988281 43.238281 194.949219 42.851562 194.875 C 42.460938 194.796875 42.085938 194.683594 41.722656 194.53125 C 41.355469 194.378906 41.007812 194.195312 40.679688 193.976562 C 40.351562 193.753906 40.046875 193.503906 39.769531 193.226562 C 39.488281 192.945312 39.238281 192.644531 39.019531 192.3125 C 38.800781 191.984375 38.617188 191.640625 38.464844 191.273438 C 38.3125 190.910156 38.199219 190.53125 38.121094 190.144531 C 38.042969 189.757812 38.007812 189.367188 38.007812 188.972656 C 38.007812 188.574219 38.042969 188.183594 38.121094 187.796875 C 38.199219 187.410156 38.3125 187.035156 38.464844 186.667969 C 38.617188 186.304688 38.800781 185.957031 39.019531 185.628906 C 39.238281 185.300781 39.488281 184.996094 39.769531 184.714844 C 40.046875 184.4375 40.351562 184.1875 40.679688 183.96875 C 41.007812 183.75 41.355469 183.5625 41.722656 183.410156 C 42.085938 183.261719 42.460938 183.144531 42.851562 183.070312 C 43.238281 182.992188 43.628906 182.953125 44.023438 182.953125 C 44.417969 182.953125 44.808594 182.992188 45.199219 183.070312 C 45.585938 183.144531 45.960938 183.261719 46.328125 183.410156 C 46.691406 183.5625 47.039062 183.75 47.367188 183.96875 C 47.695312 184.1875 48 184.4375 48.277344 184.714844 C 48.558594 184.996094 48.808594 185.300781 49.027344 185.628906 C 49.246094 185.957031 49.433594 186.304688 49.582031 186.667969 C 49.734375 187.035156 49.847656 187.410156 49.925781 187.796875 C 50.003906 188.183594 50.042969 188.574219 50.042969 188.972656 Z M 50.042969 188.972656 " fill-opacity="1" fill-rule="nonzero"/><path fill="#333f63" d="M 308.914062 155.464844 C 310.378906 160.921875 311.480469 166.472656 312.21875 172.074219 C 312.957031 177.679688 313.328125 183.324219 313.328125 188.972656 C 313.328125 224.71875 298.835938 257.082031 275.410156 280.511719 C 251.980469 303.9375 219.617188 318.429688 183.867188 318.429688 C 148.121094 318.429688 115.753906 303.9375 92.328125 280.511719 C 68.902344 257.082031 54.410156 224.71875 54.410156 188.972656 C 54.410156 153.222656 68.902344 120.859375 92.328125 97.429688 C 115.753906 74.003906 148.121094 59.511719 183.867188 59.511719 C 189.515625 59.511719 195.160156 59.882812 200.765625 60.621094 C 206.367188 61.359375 211.917969 62.460938 217.375 63.925781 L 217.078125 65.035156 C 211.65625 63.582031 206.15625 62.488281 200.617188 61.757812 C 195.078125 61.03125 189.484375 60.664062 183.867188 60.664062 C 148.4375 60.664062 116.359375 75.027344 93.140625 98.242188 C 69.921875 121.460938 55.5625 153.539062 55.5625 188.972656 C 55.5625 224.402344 69.921875 256.480469 93.140625 279.699219 C 116.359375 302.917969 148.4375 317.277344 183.867188 317.277344 C 219.300781 317.277344 251.375 302.917969 274.597656 279.699219 C 297.816406 256.480469 312.175781 224.402344 312.175781 188.972656 C 312.175781 183.355469 311.808594 177.757812 311.078125 172.222656 C 310.351562 166.683594 309.257812 161.183594 307.804688 155.761719 Z M 308.914062 155.464844 " fill-opacity="1" fill-rule="nonzero"/><g fill="#715c8c" fill-opacity="1"><g transform="translate(74.1, 208.499986)"><g><path d="M 26.515625 -30.484375 L 14.9375 -30.484375 C 13.300781 -30.484375 12.222656 -30.003906 11.703125 -29.046875 C 11.140625 -28.203125 10.859375 -27.21875 10.859375 -26.09375 L 10.859375 -8.8125 C 10.859375 -7.78125 11.175781 -6.992188 11.8125 -6.453125 C 12.457031 -5.910156 13.519531 -5.640625 15 -5.640625 L 21.1875 -5.640625 C 22.625 -5.640625 23.34375 -4.695312 23.34375 -2.8125 C 23.34375 -2.019531 23.171875 -1.351562 22.828125 -0.8125 C 22.484375 -0.269531 21.9375 0 21.1875 0 L 13.921875 0 C 11.398438 0 9.160156 -0.640625 7.203125 -1.921875 C 5.242188 -3.117188 4.265625 -5.398438 4.265625 -8.765625 L 4.265625 -26.640625 C 4.265625 -28.273438 4.519531 -29.691406 5.03125 -30.890625 C 5.550781 -32.097656 6.375 -33.082031 7.5 -33.84375 C 9.625 -35.363281 11.742188 -36.125 13.859375 -36.125 L 26.515625 -36.125 L 26.515625 -45.125 C 26.515625 -47.039062 27.613281 -48 29.8125 -48 C 32.019531 -48 33.125 -47.039062 33.125 -45.125 L 33.125 -2.515625 C 33.125 -0.597656 32.019531 0.359375 29.8125 0.359375 C 28.976562 0.359375 28.21875 0.207031 27.53125 -0.09375 C 26.851562 -0.394531 26.515625 -1.0625 26.515625 -2.09375 Z M 26.515625 -30.484375 "/></g></g></g><g fill="#333f63" fill-opacity="1"><g transform="translate(117.189841, 208.499986)"><g><path d="M 8.578125 0.0625 C 7.097656 0.0625 6.097656 -0.316406 5.578125 -1.078125 C 5.054688 -1.835938 4.796875 -2.675781 4.796875 -3.59375 L 4.796875 -45.0625 C 4.796875 -46.976562 5.957031 -47.9375 8.28125 -47.9375 C 10.675781 -47.9375 11.875 -46.976562 11.875 -45.0625 L 11.875 -6 L 31.921875 -6 C 33.359375 -6 34.078125 -5.019531 34.078125 -3.0625 C 34.160156 -0.976562 33.441406 0.0625 31.921875 0.0625 Z M 8.578125 0.0625 "/></g></g></g><g fill="#333f63" fill-opacity="1"><g transform="translate(158.289812, 208.499986)"><g><path d="M 20.578125 -41.765625 L 7.4375 -1.4375 L 7.4375 -1.5 C 7.195312 -0.894531 6.863281 -0.398438 6.4375 -0.015625 C 6.019531 0.359375 5.515625 0.546875 4.921875 0.546875 C 4.597656 0.546875 4.285156 0.515625 3.984375 0.453125 C 3.691406 0.390625 3.382812 0.316406 3.0625 0.234375 L 3.125 0.234375 C 0.84375 -0.484375 0 -1.757812 0.59375 -3.59375 L 14.28125 -45.1875 C 14.476562 -45.820312 14.828125 -46.359375 15.328125 -46.796875 C 15.828125 -47.234375 16.414062 -47.492188 17.09375 -47.578125 C 17.78125 -47.703125 18.441406 -47.789062 19.078125 -47.84375 C 19.722656 -47.90625 20.222656 -47.9375 20.578125 -47.9375 C 20.941406 -47.9375 21.441406 -47.90625 22.078125 -47.84375 C 22.722656 -47.789062 23.382812 -47.722656 24.0625 -47.640625 C 24.625 -47.554688 25.171875 -47.253906 25.703125 -46.734375 C 26.242188 -46.210938 26.65625 -45.695312 26.9375 -45.1875 C 29.175781 -38.300781 31.445312 -31.367188 33.75 -24.390625 C 36.050781 -17.410156 38.320312 -10.476562 40.5625 -3.59375 C 41.125 -1.757812 40.285156 -0.484375 38.046875 0.234375 C 37.722656 0.316406 37.429688 0.390625 37.171875 0.453125 C 36.910156 0.515625 36.617188 0.546875 36.296875 0.546875 C 35.734375 0.546875 35.222656 0.359375 34.765625 -0.015625 C 34.304688 -0.398438 33.976562 -0.894531 33.78125 -1.5 L 33.78125 -1.4375 Z M 25.078125 -14.40625 C 25.078125 -13.125 24.625 -12.03125 23.71875 -11.125 C 22.820312 -10.226562 21.734375 -9.78125 20.453125 -9.78125 C 19.179688 -9.78125 18.101562 -10.226562 17.21875 -11.125 C 16.34375 -12.03125 15.90625 -13.125 15.90625 -14.40625 C 15.90625 -15.675781 16.34375 -16.757812 17.21875 -17.65625 C 18.101562 -18.5625 19.179688 -19.015625 20.453125 -19.015625 C 21.734375 -19.015625 22.820312 -18.5625 23.71875 -17.65625 C 24.625 -16.757812 25.078125 -15.675781 25.078125 -14.40625 Z M 25.078125 -14.40625 "/></g></g></g><g fill="#333f63" fill-opacity="1"><g transform="translate(205.749767, 208.499986)"><g><path d="M 29.703125 -17.703125 C 29.703125 -18.617188 29.359375 -19.503906 28.671875 -20.359375 C 27.992188 -21.222656 26.796875 -21.71875 25.078125 -21.84375 C 23.960938 -20.476562 22.601562 -19.796875 21 -19.796875 C 19.632812 -19.796875 18.472656 -20.273438 17.515625 -21.234375 C 16.554688 -22.203125 16.078125 -23.382812 16.078125 -24.78125 C 16.078125 -26.175781 16.554688 -27.351562 17.515625 -28.3125 C 18.472656 -29.28125 19.632812 -29.765625 21 -29.765625 C 21.71875 -29.765625 22.425781 -29.5625 23.125 -29.15625 C 23.832031 -28.757812 24.460938 -28.28125 25.015625 -27.71875 C 25.898438 -27.757812 26.582031 -27.898438 27.0625 -28.140625 C 27.539062 -28.378906 27.890625 -28.664062 28.109375 -29 C 28.328125 -29.34375 28.457031 -29.734375 28.5 -30.171875 C 28.539062 -30.617188 28.5625 -31.0625 28.5625 -31.5 L 28.5625 -37.5625 C 28.5625 -38.5625 28.25 -39.476562 27.625 -40.3125 C 27.007812 -41.15625 25.960938 -41.578125 24.484375 -41.578125 L 11.9375 -41.578125 L 11.875 -1.984375 C 11.875 -1.179688 11.503906 -0.566406 10.765625 -0.140625 C 10.023438 0.273438 9.21875 0.484375 8.34375 0.484375 C 5.976562 0.484375 4.796875 -0.476562 4.796875 -2.40625 L 4.796875 -44.046875 C 4.796875 -45.484375 5.164062 -46.441406 5.90625 -46.921875 C 6.644531 -47.398438 7.535156 -47.640625 8.578125 -47.640625 L 25.984375 -47.640625 C 27.023438 -47.640625 28.132812 -47.4375 29.3125 -47.03125 C 30.488281 -46.632812 31.597656 -46.097656 32.640625 -45.421875 L 32.578125 -45.421875 C 33.617188 -44.660156 34.390625 -43.660156 34.890625 -42.421875 C 35.390625 -41.179688 35.640625 -39.738281 35.640625 -38.09375 L 35.640625 -31.3125 C 35.640625 -29.71875 35.296875 -28.410156 34.609375 -27.390625 C 33.929688 -26.367188 33.210938 -25.554688 32.453125 -24.953125 C 32.972656 -24.640625 33.472656 -24.3125 33.953125 -23.96875 C 34.441406 -23.625 34.84375 -23.253906 35.15625 -22.859375 C 35.675781 -22.296875 36.085938 -21.632812 36.390625 -20.875 C 36.691406 -20.113281 36.84375 -19.21875 36.84375 -18.1875 L 36.84375 -9.59375 C 36.84375 -6.320312 35.5625 -3.90625 33 -2.34375 C 31.71875 -1.539062 30.503906 -0.9375 29.359375 -0.53125 C 28.222656 -0.132812 27.097656 0.0625 25.984375 0.0625 L 17.09375 0.0625 C 16.414062 0.0625 15.882812 -0.21875 15.5 -0.78125 C 15.125 -1.34375 14.9375 -2.082031 14.9375 -3 C 14.9375 -5 15.773438 -6 17.453125 -6 L 25.6875 -6 C 27.164062 -6 28.203125 -6.414062 28.796875 -7.25 C 29.398438 -8.09375 29.703125 -9.035156 29.703125 -10.078125 Z M 29.703125 -17.703125 "/></g></g></g><g fill="#333f63" fill-opacity="1"><g transform="translate(253.089726, 208.499986)"><g><path d="M 27.546875 -27.421875 C 28.578125 -27.421875 29.648438 -27.195312 30.765625 -26.75 C 31.890625 -26.3125 32.972656 -25.734375 34.015625 -25.015625 L 33.953125 -25.015625 C 34.992188 -24.296875 35.796875 -23.316406 36.359375 -22.078125 C 36.921875 -20.835938 37.203125 -19.414062 37.203125 -17.8125 L 37.203125 -9.59375 C 37.203125 -6.351562 36.117188 -3.9375 33.953125 -2.34375 C 32.921875 -1.582031 31.851562 -0.988281 30.75 -0.5625 C 29.644531 -0.144531 28.578125 0.0625 27.546875 0.0625 L 14.453125 0.0625 C 13.421875 0.0625 12.351562 -0.144531 11.25 -0.5625 C 10.144531 -0.988281 9.078125 -1.582031 8.046875 -2.34375 C 5.878906 -3.9375 4.796875 -6.351562 4.796875 -9.59375 L 4.796875 -13.5625 C 4.796875 -15.4375 5.976562 -16.375 8.34375 -16.375 C 10.738281 -16.375 11.9375 -15.4375 11.9375 -13.5625 L 11.9375 -10.078125 C 11.9375 -9.035156 12.234375 -8.09375 12.828125 -7.25 C 13.429688 -6.414062 14.472656 -6 15.953125 -6 L 26.046875 -6 C 27.523438 -6 28.5625 -6.414062 29.15625 -7.25 C 29.757812 -8.09375 30.0625 -9.035156 30.0625 -10.078125 L 30.0625 -17.34375 C 30.0625 -18.34375 29.757812 -19.269531 29.15625 -20.125 C 28.5625 -20.988281 27.523438 -21.421875 26.046875 -21.421875 L 14.453125 -21.421875 C 12.378906 -21.421875 10.242188 -22.179688 8.046875 -23.703125 C 5.878906 -25.378906 4.796875 -27.796875 4.796875 -30.953125 L 4.796875 -38.09375 C 4.796875 -39.695312 5.078125 -41.109375 5.640625 -42.328125 C 6.203125 -43.546875 7.003906 -44.535156 8.046875 -45.296875 L 7.984375 -45.296875 C 9.023438 -45.972656 10.101562 -46.53125 11.21875 -46.96875 C 12.34375 -47.414062 13.421875 -47.640625 14.453125 -47.640625 L 27.546875 -47.640625 C 28.578125 -47.640625 29.648438 -47.414062 30.765625 -46.96875 C 31.890625 -46.53125 32.972656 -45.972656 34.015625 -45.296875 L 33.953125 -45.296875 C 34.992188 -44.535156 35.796875 -43.546875 36.359375 -42.328125 C 36.921875 -41.109375 37.203125 -39.695312 37.203125 -38.09375 L 37.203125 -34.5625 C 37.203125 -32.675781 36 -31.734375 33.59375 -31.734375 C 31.238281 -31.734375 30.0625 -32.675781 30.0625 -34.5625 L 30.0625 -37.5625 C 30.0625 -38.5625 29.757812 -39.476562 29.15625 -40.3125 C 28.5625 -41.15625 27.523438 -41.578125 26.046875 -41.578125 L 15.953125 -41.578125 C 14.472656 -41.578125 13.429688 -41.15625 12.828125 -40.3125 C 12.234375 -39.476562 11.9375 -38.5625 11.9375 -37.5625 L 11.9375 -31.4375 C 11.9375 -30.394531 12.234375 -29.460938 12.828125 -28.640625 C 13.429688 -27.828125 14.472656 -27.421875 15.953125 -27.421875 Z M 27.546875 -27.421875 "/></g></g></g></svg>